<?xml version="1.0" encoding="utf-8"?>
<!-- Generator: Adobe Illustrator 22.1.0, SVG Export Plug-In . SVG Version: 6.00 Build 0)  -->
<svg version="1.1" id="Capa_1" xmlns="http://www.w3.org/2000/svg" xmlns:xlink="http://www.w3.org/1999/xlink" x="0px" y="0px"
	 viewBox="0 0 45.2 47.4" style="enable-background:new 0 0 45.2 47.4;" xml:space="preserve">
<g>
	<path d="M0,47.4V11.7l11-2.8c0.3-0.1,0.5,0,0.8,0.2C11.9,9.1,12,9.4,12,9.7v34.6L0,47.4z M1,12.4v33.6l10-2.6V9.8L1,12.4z"/>
	<path d="M22.2,47.1c-0.1,0-0.2,0-0.2,0l-10.2-2.7c-0.4-0.1-0.7-0.5-0.7-0.9V9.7c0-0.3,0.1-0.5,0.4-0.7c0.2-0.2,0.5-0.2,0.8-0.2
		l10.2,2.7c0.4,0.1,0.7,0.5,0.7,0.9v33.8c0,0.3-0.1,0.5-0.4,0.7C22.6,47,22.4,47.1,22.2,47.1z M12,43.5l10,2.6V12.4L12,9.8V43.5z
		 M12,43.4L12,43.4C12,43.4,12,43.4,12,43.4z"/>
	<g id="XMLID_2_">
		<path d="M33.1,29.5l-0.4-0.3l-0.4,0.2c-0.1-0.2-1.2-1.4-1.7-2c-0.4-0.4-0.7-0.8-0.8-0.9c-0.7-0.9-1.4-1.9-2.1-2.8
			c-1.2-1.7-2.1-3.3-3-4.9c-1.6-3.2-3.3-7.3-2.4-11.1c0.7-3.1,2.9-5.6,5.9-6.9c2.9-1.2,6.2-1,9.1,0.7c1,0.6,1.8,1.3,2.5,2.2l0,0
			c1.5,1.8,2.3,4,2.3,6.4c0,3.6-1.6,7.3-3.3,10.4C37.2,23.7,35.2,26.8,33.1,29.5z M32.1,1c-1.2,0-2.3,0.2-3.5,0.7
			C26,2.8,24,5.2,23.3,7.9c-0.9,3.6,0.8,7.5,2.3,10.5c0.8,1.6,1.8,3.2,2.9,4.8c0.6,0.9,1.3,1.8,2,2.8c0.1,0.1,0.4,0.4,0.7,0.9
			c0.6,0.7,1.1,1.3,1.4,1.6c1.9-2.6,3.7-5.4,5.3-8.5c1.6-3,3.2-6.5,3.2-9.9c0-2.2-0.7-4.1-2.1-5.8c-0.6-0.8-1.4-1.4-2.3-1.9
			C35.3,1.4,33.7,1,32.1,1z M32.1,14.1c-1.1,0-2.1-0.4-2.9-1.2c-0.9-0.9-1.4-2.3-1.1-3.6c0.3-1.6,1.6-2.9,3.2-3.2
			C32.7,5.8,34,6.3,35,7.2c0.9,0.9,1.4,2.3,1.1,3.6c-0.3,1.6-1.6,2.9-3.2,3.2l0,0C32.6,14,32.4,14.1,32.1,14.1z M32.1,7
			c-0.2,0-0.4,0-0.6,0.1c-1.2,0.2-2.1,1.2-2.4,2.4c-0.2,1,0.1,2,0.8,2.7s1.7,1,2.7,0.8l0,0c1.2-0.2,2.1-1.2,2.4-2.4
			c0.2-1-0.1-2-0.8-2.7C33.7,7.3,32.9,7,32.1,7z"/>
	</g>
	<path d="M34.1,27.2l-0.9,1.4v14.9l-10,2.6V12.4l0,0l-0.3-0.9c-0.4,0.1-0.7,0.5-0.7,0.9v33.8c0,0.3,0.1,0.5,0.4,0.7
		c0.2,0.1,0.4,0.2,0.6,0.2c0.1,0,0.2,0,0.2,0l10.2-2.7c0.4-0.1,0.7-0.5,0.7-0.9V27.1L34.1,27.2z"/>
	<polygon points="41.6,10.7 41.6,11.8 44.2,12.4 44.2,46.1 34.1,43.5 34.1,27.1 34.1,27.2 33.1,28.6 33.1,44.2 45.2,47.4 45.2,11.7 
			"/>
	<polygon points="32.3,29.5 32.7,29.9 33.1,29.5 33.3,29 32.4,28.9 	"/>
</g>
</svg>
