<?xml version="1.0" encoding="utf-8"?>
<!-- Generator: Adobe Illustrator 21.0.2, SVG Export Plug-In . SVG Version: 6.00 Build 0)  -->
<svg version="1.1" id="Layer_1" xmlns="http://www.w3.org/2000/svg" xmlns:xlink="http://www.w3.org/1999/xlink" x="0px" y="0px"
	 viewBox="0 0 240.7 327.8" style="enable-background:new 0 0 240.7 327.8;" xml:space="preserve">
<style type="text/css">
	.st0{fill:#009FE2;}
	.st1{fill:#FFFFFF;}
</style>
<g>
	<path class="st0" d="M0.2,190.5c0-46.9,0-93.8,0-140.6c0.5-1.4,0.5-2.9,0.7-4.3C4.2,23.5,22.1,5.1,44,1.1c1.8-0.3,3.6-0.3,5.4-0.9
		c47.1,0,94.2,0,141.4,0c1.5,0.5,3.2,0.5,4.8,0.8c25.7,4.5,44.6,26.9,44.7,52.9c0,44.2,0,88.5,0,132.7c0,3.5-0.3,7-1,10.4
		c-5.3,25.4-27.1,43.2-53.1,43.3c-43.9,0-87.8,0-131.7,0c-3.6,0-7.1-0.3-10.6-1c-21.1-3.9-38.8-21.7-42.6-42.9
		C0.8,194.4,0.5,192.5,0.2,190.5z M161.7,131.1c0-23.4,0-46.8,0-70.2c0-0.3,0-0.6,0-1c-0.1-0.6,0.2-0.8,0.7-0.8c1.3,0,2.6,0,3.8,0
		c12.3,0,24.6,0,36.8,0c0.6,0,1.2,0.2,1.4-0.8c0.9-6.1,1-12.1,0.1-18.2c-0.2-1.1-0.6-1.3-1.6-1.3c-8.4,0-16.9,0-25.3,0
		c-26.8,0-53.7,0-80.5,0c-1,0-1.4,0.2-1.5,1.2c-0.9,5.9-0.8,11.9,0,17.8c0.1,1,0.5,1.3,1.5,1.3c13.2,0,26.5,0,39.7,0
		c1.7,0,1.7,0,1.7,1.6c0,46.9,0,93.7,0,140.6c0,1.1,0.3,1.5,1.4,1.6c6.8,0.6,13.6,0.7,20.4,0c1.3-0.1,1.5-0.5,1.5-1.7
		C161.7,177.9,161.7,154.5,161.7,131.1z M82.8,120.9c0-25.5,0-51,0-76.5c0-1.5,0-3,0-4.6c0-0.6-0.2-0.9-0.8-1c-7-1-14-1-21-0.1
		c-1.3,0.2-1.4,0.6-1.4,1.7c0,53.6,0,107.3,0,160.9c0,0.2,0,0.4,0,0.6c-0.1,0.7,0.2,1,0.9,1.1c7,1,13.9,1,20.9,0.1
		c1.2-0.2,1.5-0.5,1.5-1.7C82.8,174.6,82.8,147.7,82.8,120.9z"/>
	<path class="st1" d="M0.2,278.4c0.5-0.1,0.7-0.5,0.9-0.8c5.2-5.7,10.3-11.5,15.5-17.2c0.5-0.6,1-1.1,1.5-1.7c0.3-0.3,0.6-0.5,1-0.4
		c0.4,0.2,0.2,0.6,0.2,0.8c0,3.8,0,7.7,0,11.5c0,0.9,0.3,1.1,1.1,1.1c3.9,0,7.8,0,11.8,0c0.7,0,1,0.2,1.1,1c0.3,2.2,0.3,4.3,0,6.5
		c-0.1,0.8-0.4,1-1.2,1c-3.9,0-7.8,0-11.8,0c-0.8,0-1.1,0.2-1.1,1c0,8.9,0,17.8,0.1,26.6c0,2.2,0.2,4.3,0.7,6.4c0.7,2.8,2.2,4,5,4.3
		c2.4,0.3,4.8,0.1,7.1-0.5c1.1-0.3,1.5,0,1.8,1.1c0.5,2,0.5,4.1,0.6,6.2c0,0.5-0.1,0.8-0.7,0.9c-5.1,1-10.2,1.5-15.3,0.1
		c-5.9-1.6-9.2-5.9-9.6-12.2c-0.1-1.6-0.2-3.1-0.2-4.7c0-9.4,0-18.8,0-28.2c0-0.9-0.2-1.2-1.2-1.2c-2,0.1-3.9,0-5.9,0.1
		c-0.9,0-1.4-0.2-1.7-1C0.2,278.8,0.2,278.6,0.2,278.4z"/>
	<path class="st1" d="M205.1,279.5c2.8-3.8,6.1-6.8,10.7-8.2c5-1.5,10-1.3,14.8,0.7c4.9,2,7.4,6,8.7,10.9c0.7,2.7,1,5.4,1,8.2
		c0,11.4,0,22.7,0,34.1c0,0.9-0.2,1.1-1.1,1.2c-2.8,0.3-5.6,0.3-8.4,0c-1-0.1-1-0.6-1-1.3c0-9.8,0-19.6,0-29.4
		c0-3.1-0.1-6.2-1.1-9.2c-1.4-4.4-4.5-6.6-9.1-6.6c-7.2,0-12.5,4.6-13.9,12.2c-0.4,2.3-0.5,4.5-0.5,6.8c0,8.7,0,17.4,0,26.2
		c0,1-0.3,1.4-1.3,1.4c-2.8,0.2-5.7,0.3-8.5-0.1c-0.6-0.1-0.9-0.3-0.8-0.9c0-0.2,0-0.4,0-0.6c0-25.1,0-50.2,0-75.4
		c0-1,0.2-1.4,1.3-1.5c2.7-0.2,5.4-0.2,8.1,0c1,0.1,1.1,0.5,1.1,1.4c0,9.6,0,19.2,0,28.8C205.1,278.7,205.1,279.1,205.1,279.5z"/>
	<path class="st1" d="M35.8,298.9c0.1-4.6,0.6-9.2,2.4-13.5c3.8-9.4,11-14.2,21-15c4.2-0.3,8.3,0.1,12.2,1.7
		c6.1,2.5,10.5,6.8,12.8,13c3.5,9.2,3.5,18.6,0,27.8c-3.4,8.7-10.1,13.3-19.3,14.4c-5.1,0.6-10.2,0.2-14.9-2
		c-7.5-3.5-11.5-9.6-13.2-17.4C36,304.9,35.8,302,35.8,298.9z M47,299c0,4.3,0.4,8.5,2.2,12.5c1.3,3,3.3,5.4,6.4,6.6
		c7.7,3.2,15.7-0.2,18.3-8.1c2.5-7.2,2.4-14.6,0.1-21.9c-1.6-4.9-4.8-8.3-10.2-9c-7.2-0.9-12.6,1.5-15.2,8.8
		C47.3,291.5,47,295.2,47,299z"/>
	<path class="st1" d="M139,298.2c0,8.4,0,16.9,0,25.3c0,0.7,0,1.2-0.9,1.4c-6.8,1.7-13.7,3-20.8,2.7c-3.2-0.1-6.3-0.4-9.4-1.3
		c-7.6-2.2-11.5-7.6-13.2-15c-0.7-3.1-0.8-6.3-0.8-9.4c0-9.7,0-19.4,0-29c0-0.9,0.3-1.2,1.2-1.3c2.8-0.3,5.5-0.3,8.3,0
		c0.9,0.1,1.2,0.4,1.2,1.3c0,9.4,0,18.9,0,28.3c0,2.8,0.2,5.7,0.8,8.4c1.2,5,4.3,8.1,9.5,8.8c4.2,0.6,8.4,0.4,12.6-0.5
		c0.9-0.2,1.2-0.5,1.2-1.5c0-14.5,0-29-0.1-43.4c0-1.1,0.4-1.4,1.3-1.5c2.6-0.2,5.2-0.2,7.8,0c1,0.1,1.4,0.4,1.4,1.5
		C139,281.4,139,289.8,139,298.2z"/>
	<path class="st1" d="M146.5,299.4c-0.1-5.2,0.7-9.9,2.7-14.4c4.2-9.1,11.6-13.8,21.5-14.5c5.4-0.4,10.7,0,15.9,1.8
		c0.8,0.3,1.1,0.6,1,1.4c-0.3,2.1-0.6,4.1-1.3,6.1c-0.3,1-0.6,1.3-1.7,0.9c-4.2-1.4-8.6-1.7-13-1.3c-6.3,0.6-10.4,4.2-12.4,10.1
		c-2.2,6.3-2.1,12.7-0.2,19c1.9,6.2,7.3,10,14.2,10.3c4.2,0.2,8.3-0.1,12.3-1.6c0.6-0.2,0.8-0.1,1.1,0.5c1,2.2,1.6,4.5,1.9,6.9
		c0.1,0.7-0.4,0.8-0.9,1c-5.4,1.9-11.1,2.4-16.8,2c-3.4-0.2-6.8-0.9-10-2.3c-7.2-3.3-11.2-9.2-13.1-16.7
		C146.8,305.4,146.5,302.3,146.5,299.4z"/>
</g>
</svg>
